<svg width="16" height="17" viewBox="0 0 16 17" fill="none" xmlns="http://www.w3.org/2000/svg">
<path d="M15.6348 2.78912C15.3914 2.5488 15.1027 2.42861 14.7694 2.42861H13.5388V1.51787C13.5388 1.10054 13.388 0.743184 13.0868 0.445937C12.7853 0.14869 12.4233 0 12.0001 0H11.3849C10.9617 0 10.5996 0.14869 10.2983 0.44597C9.99689 0.743184 9.84625 1.10057 9.84625 1.5179V2.42865H6.15409V1.5179C6.15409 1.10057 6.00338 0.743217 5.70206 0.44597C5.4008 0.14869 5.03862 0 4.61546 0H4.00012C3.57705 0 3.21484 0.14869 2.91352 0.44597C2.61226 0.743184 2.46152 1.10057 2.46152 1.5179V2.42865H1.23084C0.897428 2.42865 0.609006 2.54883 0.365411 2.78916C0.121815 3.02945 -3.13474e-08 3.31414 -3.13474e-08 3.64299V15.7858C-3.13474e-08 16.1144 0.121815 16.3991 0.365411 16.6395C0.608973 16.8798 0.897395 17 1.23084 17H14.7692C15.1025 17 15.3912 16.8798 15.6345 16.6395C15.8782 16.3992 16 16.1144 16 15.7858V3.64295C16 3.31401 15.8783 3.02945 15.6348 2.78912ZM11.0772 1.518C11.0772 1.42938 11.1058 1.35658 11.1634 1.2998C11.221 1.24295 11.2948 1.21447 11.3847 1.21447H11.9999C12.0898 1.21447 12.1634 1.24285 12.2212 1.2998C12.2788 1.35668 12.3076 1.42948 12.3076 1.518V4.25004C12.3076 4.33862 12.2788 4.41129 12.2212 4.46824C12.1633 4.52503 12.0898 4.55357 11.9999 4.55357H11.3847C11.2948 4.55357 11.221 4.52516 11.1634 4.46824C11.1058 4.41126 11.0772 4.33862 11.0772 4.25004V1.518ZM3.69247 1.518C3.69247 1.42938 3.72126 1.35658 3.77895 1.2998C3.83668 1.24295 3.91033 1.21447 4.00012 1.21447H4.61546C4.70528 1.21447 4.77907 1.24285 4.83662 1.2998C4.89425 1.35668 4.92317 1.42948 4.92317 1.518V4.25004C4.92317 4.33862 4.89438 4.41139 4.83662 4.46824C4.77893 4.52503 4.70528 4.55357 4.61546 4.55357H4.00012C3.91033 4.55357 3.83658 4.52516 3.77895 4.46824C3.7214 4.41126 3.69247 4.33862 3.69247 4.25004V1.518ZM14.7692 15.7857H1.23084V6.07147H14.7692V15.7857Z" fill="#BEC7D1"/>
</svg>
