<svg width="36" height="36" viewBox="0 0 36 36" fill="none" xmlns="http://www.w3.org/2000/svg">
<path d="M2.59399e-07 3.40808C0.825243 1.06215 3.22215 -0.346531 5.6732 0.0738891C8.12425 0.494309 9.91471 2.62124 9.911 5.10808C9.911 8.50808 4.811 10.2081 4.811 10.2081" transform="translate(13.053 9.4917)" stroke="#FFDD00" stroke-width="2" stroke-linecap="round" stroke-linejoin="round"/>
<circle cx="0.85" cy="0.85" r="0.85" transform="translate(18 26.5)" fill="#FFD001"/>
<circle cx="0.85" cy="0.85" r="1.35" transform="translate(18 26.5)" stroke="#FFDD00" stroke-linecap="round" stroke-linejoin="round"/>
<path d="M34 17C34 26.3888 26.3888 34 17 34C7.61116 34 0 26.3888 0 17C0 7.61116 7.61116 0 17 0C26.3888 0 34 7.61116 34 17Z" transform="translate(1 1)" stroke="#FFDD00" stroke-width="2" stroke-linecap="round" stroke-linejoin="round"/>
</svg>
